<?xml version="1.0" encoding="UTF-8" standalone="no"?>
<!-- Created with Inkscape (http://www.inkscape.org/) -->

<svg
   xmlns:dc="http://purl.org/dc/elements/1.1/"
   xmlns:cc="http://creativecommons.org/ns#"
   xmlns:rdf="http://www.w3.org/1999/02/22-rdf-syntax-ns#"
   xmlns:svg="http://www.w3.org/2000/svg"
   xmlns="http://www.w3.org/2000/svg"
   xmlns:sodipodi="http://sodipodi.sourceforge.net/DTD/sodipodi-0.dtd"
   xmlns:inkscape="http://www.inkscape.org/namespaces/inkscape"
   width="1133.8583"
   height="742"
   viewBox="0 0 300 196.32083"
   version="1.1"
   id="svg4506"
   inkscape:version="0.92.1 r"
   sodipodi:docname="kangoo-icon.svg">
  <defs
     id="defs4500" />
  <sodipodi:namedview
     id="base"
     pagecolor="#ffffff"
     bordercolor="#666666"
     borderopacity="1.0"
     inkscape:pageopacity="0.0"
     inkscape:pageshadow="2"
     inkscape:zoom="0.35355339"
     inkscape:cx="153.52285"
     inkscape:cy="747.05589"
     inkscape:document-units="px"
     inkscape:current-layer="layer1"
     showgrid="false"
     units="px"
     inkscape:window-width="1366"
     inkscape:window-height="711"
     inkscape:window-x="0"
     inkscape:window-y="30"
     inkscape:window-maximized="1" />
  <metadata
     id="metadata4503">
    <rdf:RDF>
      <cc:Work
         rdf:about="">
        <dc:format>image/svg+xml</dc:format>
        <dc:type
           rdf:resource="http://purl.org/dc/dcmitype/StillImage" />
        <dc:title></dc:title>
      </cc:Work>
    </rdf:RDF>
  </metadata>
  <g
     inkscape:label="kangoo_icon"
     inkscape:groupmode="layer"
     id="layer1"
     transform="translate(0,-100.67917)">
    <path
       style="display:inline;fill:#ffffff;fill-opacity:1;fill-rule:evenodd;stroke-width:2.80926752"
       inkscape:connector-curvature="0"
       d="m 287.50173,152.92941 -38.09386,7.5962 -0.86799,1.46221 c -15.60533,26.08693 -21.59718,34.5204 -32.84047,34.5204 h -3.84591 v 23.83616 c 0,3.11806 -3.67898,5.06103 -6.57677,6.10928 l -10.20902,-40.33522 -7.45812,1.86284 2.26347,8.93357 h -22.39574 c -1.88289,-10.87719 -11.36946,-22.48548 -27.73927,-33.82869 l -4.4001,6.26284 c 15.99392,11.08482 24.80076,22.28248 24.80076,31.53384 0,9.8543 -3.6456,24.57464 -35.17203,38.54518 -6.14945,2.7241 -11.70932,4.93415 -11.76541,4.95417 l -2.41705,0.96146 v 34.97242 c 0,3.28497 -3.81251,5.72201 -7.06551,7.13547 l -11.905623,-46.45115 37.411473,-36.7925 -29.845865,-21.93461 -2.33025,2.65069 c -16.046641,18.23232 -31.320773,27.75811 -51.073132,31.85701 -5.054411,1.04824 -12.265496,2.16995 -19.575394,2.63732 21.255312,-9.08511 35.723552,-29.5141 50.814739,-50.8191 l 3.658943,-5.16117 c 11.33875,-15.90014 35.060539,-42.57127 66.580289,-42.57127 29.55406,0 49.52808,14.22626 74.82029,32.23624 l 1.79609,1.27527 2.01642,-0.90136 c 1.70929,-0.76116 16.68766,-7.71704 16.68766,-17.90652 v -12.86084 c 0,-5.93567 4.19978,-12.21988 10.78456,-14.02327 v 16.22861 l 36.78784,21.09202 z m -26.25836,-32.41853 v -19.96764 h -3.8459 c -13.7885,0 -22.32295,11.50948 -22.32295,22.173 v 12.86084 c 0,3.27831 -5.53519,7.50873 -10.19766,9.98382 -24.58711,-17.49321 -46.199,-32.3344 -77.43231,-32.3344 -34.97841,0 -60.661209,28.69354 -72.856601,45.7995 -1.228559,1.72929 -2.457105,3.4519 -3.672309,5.17451 -19.122723,26.99631 -37.183794,52.49633 -69.2884426,52.49633 l -1.61582858,7.28439 c 14.41414718,6.65678 42.12271718,1.39546 47.53303118,0.26708 20.536212,-4.2598 36.532128,-13.79895 52.92732,-31.68008 l 16.96539,12.46759 -34.166487,33.5983 14.956319,58.35658 3.692318,-0.87467 c 6.14946,-1.46223 16.55746,-6.44312 16.55746,-15.81065 v -29.81726 c 2.2568,-0.92138 5.83562,-2.41033 9.62477,-4.09288 25.34027,-11.22837 38.01843,-24.60065 39.56612,-41.85486 h 24.14044 l 7.84938,30.99972 3.50538,-0.60092 c 6.08268,-1.03488 16.38051,-5.26798 16.38051,-14.61616 v -16.44629 c 13.13085,-1.78938 20.76122,-13.23409 34.73472,-36.54813 l 38.7909,-7.73908 6.92999,-16.88362 z"
       id="path944"
       sodipodi:nodetypes="cccscscccccccscccscccccccccscccssccccccssscsccccccccccsccccccsccccc" />
    <path
       sodipodi:nodetypes="cccscscccccccscccscccccccccscccssccccccssscsccccccccccsccccccsccccc"
       id="path5066"
       d="m 287.30057,153.03021 -38.06721,7.59089 -0.86738,1.46118 c -15.59441,26.06868 -21.58207,34.49625 -32.81749,34.49625 h -3.84322 v 23.81948 c 0,3.11588 -3.67641,5.05749 -6.57217,6.10501 l -10.20188,-40.307 -7.4529,1.86154 2.26189,8.92732 h -22.38007 c -1.88157,-10.86958 -11.3615,-22.46975 -27.71986,-33.80502 l -4.39702,6.25845 c 15.98273,11.07707 24.7834,22.26689 24.7834,31.51178 0,9.8474 -3.64304,24.55744 -35.14741,38.51821 -6.14515,2.72219 -11.70113,4.9307 -11.75718,4.9507 l -2.41536,0.96079 v 34.94795 c 0,3.28267 -3.80984,5.718 -7.06057,7.13047 l -11.897289,-46.41864 37.385299,-36.76676 -29.824985,-21.91926 -2.328619,2.64884 c -16.035413,18.21956 -31.298857,27.73868 -51.037395,31.83471 -5.050874,1.04751 -12.256914,2.16844 -19.561697,2.63548 21.240439,-9.07875 35.698556,-29.49345 50.779183,-50.78354 l 3.656383,-5.15756 C 92.147836,147.64247 115.85303,120.99 147.35072,120.99 c 29.53338,0 49.49342,14.2163 74.76794,32.21368 l 1.79483,1.27438 2.01501,-0.90073 c 1.70809,-0.76063 16.67598,-7.71164 16.67598,-17.89399 V 122.8315 c 0,-5.93152 4.19684,-12.21133 10.77702,-14.01346 v 16.21726 l 36.76209,21.07726 z M 261.06058,120.63437 V 100.6807 h -3.84321 c -13.77885,0 -22.30733,11.50143 -22.30733,22.15748 v 12.85185 c 0,3.27601 -5.53132,7.50347 -10.19052,9.97683 -24.56991,-17.48097 -46.16668,-32.31178 -77.37813,-32.31178 -34.95394,0 -60.618766,28.67347 -72.805624,45.76746 -1.227699,1.72808 -2.455386,3.44948 -3.66974,5.17089 -19.109342,26.97742 -37.157775,52.45959 -69.2399592,52.45959 l -1.61469798,7.2793 C 14.41543,230.68444 42.104612,225.4268 47.51114,224.29921 68.032982,220.04239 84.017705,210.50992 100.40143,192.6413 l 16.95351,12.45886 -34.142576,33.57479 14.945854,58.31575 3.689732,-0.87406 c 6.14516,-1.4612 16.54588,-6.43861 16.54588,-15.79958 v -29.7964 c 2.25522,-0.92074 5.83153,-2.40864 9.61803,-4.09002 25.32254,-11.22051 37.99183,-24.58343 39.53844,-41.82557 h 24.12354 l 7.84389,30.97803 3.50293,-0.6005 c 6.07842,-1.03416 16.36905,-5.26429 16.36905,-14.60593 v -16.43479 c 13.12166,-1.78812 20.74669,-13.22483 34.71041,-36.52255 l 38.76376,-7.73367 6.92514,-16.8718 z"
       inkscape:connector-curvature="0"
       style="display:inline;fill:#ffffff;fill-opacity:1;fill-rule:evenodd;stroke-width:2.80730176" />
  </g>
</svg>
